# xmcd
#
# Track frame offsets: 
#        150
#        14635
#        26120
#        41987
#        57100
#        71260
#        82745
#        95265
#        105752
#        120807
#        137780
#        147587
#        158017
#        174015
#        185200
#        196360
#
# Disc length: 2808 seconds
#
# Revision: 4
# Processed by: cddbd v1.5.2PL0 Copyright (c) Steve Scherf et al.
# Submitted via: ExactAudioCopy v1.0b4
#
DISCID=cc0af610
DTITLE=Dorival Caymmi - Meus Momentos
DYEAR=1996
DGENRE=Blues
TTITLE0=A Jangada Voltou Só
TTITLE1=Dois de Fevereiro
TTITLE2=É Doce Morrer no Mar
TTITLE3=O Mar
TTITLE4=O Bem do Mar
TTITLE5=A Lenda do Abaeté
TTITLE6=Maracangalha
TTITLE7=Eu Não Tenho Onde Morar
TTITLE8=Acalanto
TTITLE9=Promessa de Pescador
TTITLE10=Vestido de Bolero
TTITLE11=Rosa Morena
TTITLE12=Dora
TTITLE13=O que é que a Baiana tem
TTITLE14=Marina
TTITLE15=Das Rosas
EXTD=
EXTT0=
EXTT1=
EXTT2=
EXTT3=
EXTT4=
EXTT5=
EXTT6=
EXTT7=
EXTT8=
EXTT9=
EXTT10=
EXTT11=
EXTT12=
EXTT13=
EXTT14=
EXTT15=
PLAYORDER=
